<?xml version="1.0" encoding="UTF-8" standalone="no"?>
<!DOCTYPE svg PUBLIC "-//W3C//DTD SVG 1.1//EN"
 "http://www.w3.org/Graphics/SVG/1.1/DTD/svg11.dtd">
<!-- Generated by graphviz version 10.0.1 (20240210.2158)
 -->
<!-- Pages: 1 -->
<svg width="1598pt" height="210pt"
 viewBox="0.00 0.00 1598.20 210.00" xmlns="http://www.w3.org/2000/svg" xmlns:xlink="http://www.w3.org/1999/xlink">
<g id="graph0" class="graph" transform="scale(1 1) rotate(0) translate(4 206)">
<polygon fill="white" stroke="none" points="-4,4 -4,-206 1594.2,-206 1594.2,4 -4,4"/>
<!-- 2802168592912 -->
<g id="node1" class="node">
<title>2802168592912</title>
<polygon fill="none" stroke="black" points="1.5,-165.5 1.5,-201.5 193.5,-201.5 193.5,-165.5 1.5,-165.5"/>
<text text-anchor="middle" x="16.25" y="-178.2" font-family="Times New Roman,serif" font-size="14.00">x1</text>
<polyline fill="none" stroke="black" points="31,-165.75 31,-201.5"/>
<text text-anchor="middle" x="71.25" y="-178.2" font-family="Times New Roman,serif" font-size="14.00">data 3.0000</text>
<polyline fill="none" stroke="black" points="111.5,-165.75 111.5,-201.5"/>
<text text-anchor="middle" x="152.5" y="-178.2" font-family="Times New Roman,serif" font-size="14.00">grad 4.0000</text>
</g>
<!-- 2802173763968* -->
<g id="node13" class="node">
<title>2802173763968*</title>
<ellipse fill="none" stroke="black" cx="258" cy="-128.5" rx="27" ry="18"/>
<text text-anchor="middle" x="258" y="-123.08" font-family="Times New Roman,serif" font-size="14.00">*</text>
</g>
<!-- 2802168592912&#45;&gt;2802173763968* -->
<g id="edge12" class="edge">
<title>2802168592912&#45;&gt;2802173763968*</title>
<path fill="none" stroke="black" d="M169.25,-165.04C177.99,-162.37 186.74,-159.5 195,-156.5 205.08,-152.84 215.81,-148.25 225.46,-143.85"/>
<polygon fill="black" stroke="black" points="226.85,-147.07 234.44,-139.67 223.9,-140.72 226.85,-147.07"/>
</g>
<!-- 2802172263456 -->
<g id="node2" class="node">
<title>2802172263456</title>
<polygon fill="none" stroke="black" points="1.5,-55.5 1.5,-91.5 193.5,-91.5 193.5,-55.5 1.5,-55.5"/>
<text text-anchor="middle" x="16.25" y="-68.2" font-family="Times New Roman,serif" font-size="14.00">x0</text>
<polyline fill="none" stroke="black" points="31,-55.75 31,-91.5"/>
<text text-anchor="middle" x="71.25" y="-68.2" font-family="Times New Roman,serif" font-size="14.00">data 1.0000</text>
<polyline fill="none" stroke="black" points="111.5,-55.75 111.5,-91.5"/>
<text text-anchor="middle" x="152.5" y="-68.2" font-family="Times New Roman,serif" font-size="14.00">grad 2.0000</text>
</g>
<!-- 2802173763728* -->
<g id="node6" class="node">
<title>2802173763728*</title>
<ellipse fill="none" stroke="black" cx="258" cy="-73.5" rx="27" ry="18"/>
<text text-anchor="middle" x="258" y="-68.08" font-family="Times New Roman,serif" font-size="14.00">*</text>
</g>
<!-- 2802172263456&#45;&gt;2802173763728* -->
<g id="edge8" class="edge">
<title>2802172263456&#45;&gt;2802173763728*</title>
<path fill="none" stroke="black" d="M193.9,-73.5C202.87,-73.5 211.55,-73.5 219.46,-73.5"/>
<polygon fill="black" stroke="black" points="219.28,-77 229.28,-73.5 219.28,-70 219.28,-77"/>
</g>
<!-- 2802173764160 -->
<g id="node3" class="node">
<title>2802173764160</title>
<polygon fill="none" stroke="black" points="662.25,-82.5 662.25,-118.5 907.5,-118.5 907.5,-82.5 662.25,-82.5"/>
<text text-anchor="middle" x="700.25" y="-95.2" font-family="Times New Roman,serif" font-size="14.00">x0w0x1w1</text>
<polyline fill="none" stroke="black" points="738.25,-82.75 738.25,-118.5"/>
<text text-anchor="middle" x="781.88" y="-95.2" font-family="Times New Roman,serif" font-size="14.00">data 14.0000</text>
<polyline fill="none" stroke="black" points="825.5,-82.75 825.5,-118.5"/>
<text text-anchor="middle" x="866.5" y="-95.2" font-family="Times New Roman,serif" font-size="14.00">grad 1.0000</text>
</g>
<!-- 2802173764352+ -->
<g id="node9" class="node">
<title>2802173764352+</title>
<ellipse fill="none" stroke="black" cx="970.5" cy="-72.5" rx="27" ry="18"/>
<text text-anchor="middle" x="970.5" y="-67.08" font-family="Times New Roman,serif" font-size="14.00">+</text>
</g>
<!-- 2802173764160&#45;&gt;2802173764352+ -->
<g id="edge14" class="edge">
<title>2802173764160&#45;&gt;2802173764352+</title>
<path fill="none" stroke="black" d="M907.08,-82.02C916.14,-80.64 924.78,-79.32 932.58,-78.13"/>
<polygon fill="black" stroke="black" points="932.88,-81.63 942.23,-76.66 931.82,-74.71 932.88,-81.63"/>
</g>
<!-- 2802173764160+ -->
<g id="node4" class="node">
<title>2802173764160+</title>
<ellipse fill="none" stroke="black" cx="599.25" cy="-100.5" rx="27" ry="18"/>
<text text-anchor="middle" x="599.25" y="-95.08" font-family="Times New Roman,serif" font-size="14.00">+</text>
</g>
<!-- 2802173764160+&#45;&gt;2802173764160 -->
<g id="edge1" class="edge">
<title>2802173764160+&#45;&gt;2802173764160</title>
<path fill="none" stroke="black" d="M626.56,-100.5C633.6,-100.5 641.72,-100.5 650.47,-100.5"/>
<polygon fill="black" stroke="black" points="650.36,-104 660.36,-100.5 650.36,-97 650.36,-104"/>
</g>
<!-- 2802173763728 -->
<g id="node5" class="node">
<title>2802173763728</title>
<polygon fill="none" stroke="black" points="324.38,-55.5 324.38,-91.5 532.88,-91.5 532.88,-55.5 324.38,-55.5"/>
<text text-anchor="middle" x="347.38" y="-68.2" font-family="Times New Roman,serif" font-size="14.00">x0w0</text>
<polyline fill="none" stroke="black" points="370.38,-55.75 370.38,-91.5"/>
<text text-anchor="middle" x="410.62" y="-68.2" font-family="Times New Roman,serif" font-size="14.00">data 2.0000</text>
<polyline fill="none" stroke="black" points="450.88,-55.75 450.88,-91.5"/>
<text text-anchor="middle" x="491.88" y="-68.2" font-family="Times New Roman,serif" font-size="14.00">grad 1.0000</text>
</g>
<!-- 2802173763728&#45;&gt;2802173764160+ -->
<g id="edge6" class="edge">
<title>2802173763728&#45;&gt;2802173764160+</title>
<path fill="none" stroke="black" d="M533.06,-90.06C543.09,-91.67 552.73,-93.21 561.39,-94.6"/>
<polygon fill="black" stroke="black" points="560.61,-98.02 571.03,-96.14 561.71,-91.11 560.61,-98.02"/>
</g>
<!-- 2802173763728*&#45;&gt;2802173763728 -->
<g id="edge2" class="edge">
<title>2802173763728*&#45;&gt;2802173763728</title>
<path fill="none" stroke="black" d="M285.35,-73.5C293.29,-73.5 302.56,-73.5 312.49,-73.5"/>
<polygon fill="black" stroke="black" points="312.44,-77 322.44,-73.5 312.44,-70 312.44,-77"/>
</g>
<!-- 2802168594112 -->
<g id="node7" class="node">
<title>2802168594112</title>
<polygon fill="none" stroke="black" points="689.62,-27.5 689.62,-63.5 880.12,-63.5 880.12,-27.5 689.62,-27.5"/>
<text text-anchor="middle" x="701.38" y="-40.2" font-family="Times New Roman,serif" font-size="14.00">b</text>
<polyline fill="none" stroke="black" points="713.12,-27.75 713.12,-63.5"/>
<text text-anchor="middle" x="755.62" y="-40.2" font-family="Times New Roman,serif" font-size="14.00">data &#45;7.0000</text>
<polyline fill="none" stroke="black" points="798.12,-27.75 798.12,-63.5"/>
<text text-anchor="middle" x="839.12" y="-40.2" font-family="Times New Roman,serif" font-size="14.00">grad 1.0000</text>
</g>
<!-- 2802168594112&#45;&gt;2802173764352+ -->
<g id="edge7" class="edge">
<title>2802168594112&#45;&gt;2802173764352+</title>
<path fill="none" stroke="black" d="M880.38,-59.4C899,-62.13 917.48,-64.85 932.74,-67.1"/>
<polygon fill="black" stroke="black" points="931.84,-70.5 942.24,-68.49 932.85,-63.57 931.84,-70.5"/>
</g>
<!-- 2802173764352 -->
<g id="node8" class="node">
<title>2802173764352</title>
<polygon fill="none" stroke="black" points="1033.5,-54.5 1033.5,-90.5 1237.5,-90.5 1237.5,-54.5 1033.5,-54.5"/>
<text text-anchor="middle" x="1054.25" y="-67.2" font-family="Times New Roman,serif" font-size="14.00">Sum</text>
<polyline fill="none" stroke="black" points="1075,-54.75 1075,-90.5"/>
<text text-anchor="middle" x="1115.25" y="-67.2" font-family="Times New Roman,serif" font-size="14.00">data 7.0000</text>
<polyline fill="none" stroke="black" points="1155.5,-54.75 1155.5,-90.5"/>
<text text-anchor="middle" x="1196.5" y="-67.2" font-family="Times New Roman,serif" font-size="14.00">grad 1.0000</text>
</g>
<!-- 2802173764496ReLU -->
<g id="node15" class="node">
<title>2802173764496ReLU</title>
<ellipse fill="none" stroke="black" cx="1306.6" cy="-72.5" rx="33.1" ry="18"/>
<text text-anchor="middle" x="1306.6" y="-67.08" font-family="Times New Roman,serif" font-size="14.00">ReLU</text>
</g>
<!-- 2802173764352&#45;&gt;2802173764496ReLU -->
<g id="edge9" class="edge">
<title>2802173764352&#45;&gt;2802173764496ReLU</title>
<path fill="none" stroke="black" d="M1237.79,-72.5C1246.1,-72.5 1254.19,-72.5 1261.71,-72.5"/>
<polygon fill="black" stroke="black" points="1261.5,-76 1271.5,-72.5 1261.5,-69 1261.5,-76"/>
</g>
<!-- 2802173764352+&#45;&gt;2802173764352 -->
<g id="edge3" class="edge">
<title>2802173764352+&#45;&gt;2802173764352</title>
<path fill="none" stroke="black" d="M997.69,-72.5C1004.84,-72.5 1013.06,-72.5 1021.86,-72.5"/>
<polygon fill="black" stroke="black" points="1021.75,-76 1031.75,-72.5 1021.75,-69 1021.75,-76"/>
</g>
<!-- 2802168592672 -->
<g id="node10" class="node">
<title>2802168592672</title>
<polygon fill="none" stroke="black" points="0,-110.5 0,-146.5 195,-146.5 195,-110.5 0,-110.5"/>
<text text-anchor="middle" x="16.25" y="-123.2" font-family="Times New Roman,serif" font-size="14.00">w1</text>
<polyline fill="none" stroke="black" points="32.5,-110.75 32.5,-146.5"/>
<text text-anchor="middle" x="72.75" y="-123.2" font-family="Times New Roman,serif" font-size="14.00">data 4.0000</text>
<polyline fill="none" stroke="black" points="113,-110.75 113,-146.5"/>
<text text-anchor="middle" x="154" y="-123.2" font-family="Times New Roman,serif" font-size="14.00">grad 3.0000</text>
</g>
<!-- 2802168592672&#45;&gt;2802173763968* -->
<g id="edge10" class="edge">
<title>2802168592672&#45;&gt;2802173763968*</title>
<path fill="none" stroke="black" d="M195.27,-128.5C203.62,-128.5 211.71,-128.5 219.12,-128.5"/>
<polygon fill="black" stroke="black" points="219.01,-132 229.01,-128.5 219.01,-125 219.01,-132"/>
</g>
<!-- 2802173160304 -->
<g id="node11" class="node">
<title>2802173160304</title>
<polygon fill="none" stroke="black" points="0,-0.5 0,-36.5 195,-36.5 195,-0.5 0,-0.5"/>
<text text-anchor="middle" x="16.25" y="-13.2" font-family="Times New Roman,serif" font-size="14.00">w0</text>
<polyline fill="none" stroke="black" points="32.5,-0.75 32.5,-36.5"/>
<text text-anchor="middle" x="72.75" y="-13.2" font-family="Times New Roman,serif" font-size="14.00">data 2.0000</text>
<polyline fill="none" stroke="black" points="113,-0.75 113,-36.5"/>
<text text-anchor="middle" x="154" y="-13.2" font-family="Times New Roman,serif" font-size="14.00">grad 1.0000</text>
</g>
<!-- 2802173160304&#45;&gt;2802173763728* -->
<g id="edge11" class="edge">
<title>2802173160304&#45;&gt;2802173763728*</title>
<path fill="none" stroke="black" d="M166.34,-36.99C176.03,-39.98 185.81,-43.18 195,-46.5 204.87,-50.06 215.4,-54.43 224.93,-58.6"/>
<polygon fill="black" stroke="black" points="223.24,-61.68 233.8,-62.56 226.1,-55.29 223.24,-61.68"/>
</g>
<!-- 2802173763968 -->
<g id="node12" class="node">
<title>2802173763968</title>
<polygon fill="none" stroke="black" points="321,-110.5 321,-146.5 536.25,-146.5 536.25,-110.5 321,-110.5"/>
<text text-anchor="middle" x="344" y="-123.2" font-family="Times New Roman,serif" font-size="14.00">x1w1</text>
<polyline fill="none" stroke="black" points="367,-110.75 367,-146.5"/>
<text text-anchor="middle" x="410.62" y="-123.2" font-family="Times New Roman,serif" font-size="14.00">data 12.0000</text>
<polyline fill="none" stroke="black" points="454.25,-110.75 454.25,-146.5"/>
<text text-anchor="middle" x="495.25" y="-123.2" font-family="Times New Roman,serif" font-size="14.00">grad 1.0000</text>
</g>
<!-- 2802173763968&#45;&gt;2802173764160+ -->
<g id="edge13" class="edge">
<title>2802173763968&#45;&gt;2802173764160+</title>
<path fill="none" stroke="black" d="M536.42,-110.77C545.17,-109.31 553.57,-107.92 561.21,-106.65"/>
<polygon fill="black" stroke="black" points="561.73,-110.11 571.03,-105.02 560.59,-103.21 561.73,-110.11"/>
</g>
<!-- 2802173763968*&#45;&gt;2802173763968 -->
<g id="edge4" class="edge">
<title>2802173763968*&#45;&gt;2802173763968</title>
<path fill="none" stroke="black" d="M285.35,-128.5C292.45,-128.5 300.61,-128.5 309.36,-128.5"/>
<polygon fill="black" stroke="black" points="309.2,-132 319.2,-128.5 309.2,-125 309.2,-132"/>
</g>
<!-- 2802173764496 -->
<g id="node14" class="node">
<title>2802173764496</title>
<polygon fill="none" stroke="black" points="1375.7,-54.5 1375.7,-90.5 1590.2,-90.5 1590.2,-54.5 1375.7,-54.5"/>
<text text-anchor="middle" x="1401.7" y="-67.2" font-family="Times New Roman,serif" font-size="14.00">output</text>
<polyline fill="none" stroke="black" points="1427.7,-54.75 1427.7,-90.5"/>
<text text-anchor="middle" x="1467.95" y="-67.2" font-family="Times New Roman,serif" font-size="14.00">data 7.0000</text>
<polyline fill="none" stroke="black" points="1508.2,-54.75 1508.2,-90.5"/>
<text text-anchor="middle" x="1549.2" y="-67.2" font-family="Times New Roman,serif" font-size="14.00">grad 1.0000</text>
</g>
<!-- 2802173764496ReLU&#45;&gt;2802173764496 -->
<g id="edge5" class="edge">
<title>2802173764496ReLU&#45;&gt;2802173764496</title>
<path fill="none" stroke="black" d="M1339.99,-72.5C1347.24,-72.5 1355.35,-72.5 1363.92,-72.5"/>
<polygon fill="black" stroke="black" points="1363.9,-76 1373.9,-72.5 1363.9,-69 1363.9,-76"/>
</g>
</g>
</svg>
