<?xml version="1.0" encoding="UTF-8" standalone="no"?>
<!DOCTYPE svg PUBLIC "-//W3C//DTD SVG 1.1//EN"
 "http://www.w3.org/Graphics/SVG/1.1/DTD/svg11.dtd">
<!-- Generated by graphviz version 10.0.1 (20240210.2158)
 -->
<!-- Pages: 1 -->
<svg width="3291pt" height="239pt"
 viewBox="0.00 0.00 3290.75 239.00" xmlns="http://www.w3.org/2000/svg" xmlns:xlink="http://www.w3.org/1999/xlink">
<g id="graph0" class="graph" transform="scale(1 1) rotate(0) translate(4 235)">
<polygon fill="white" stroke="none" points="-4,4 -4,-235 3286.75,-235 3286.75,4 -4,4"/>
<!-- 1358480082944 -->
<g id="node1" class="node">
<title>1358480082944</title>
<polygon fill="none" stroke="black" points="3054,-54.5 3054,-90.5 3282.75,-90.5 3282.75,-54.5 3054,-54.5"/>
<text text-anchor="middle" x="3077" y="-67.2" font-family="Times New Roman,serif" font-size="14.00">None</text>
<polyline fill="none" stroke="black" points="3100,-54.75 3100,-90.5"/>
<text text-anchor="middle" x="3140.25" y="-67.2" font-family="Times New Roman,serif" font-size="14.00">data 1.0000</text>
<polyline fill="none" stroke="black" points="3180.5,-54.75 3180.5,-90.5"/>
<text text-anchor="middle" x="3231.62" y="-67.2" font-family="Times New Roman,serif" font-size="14.00">grad 1000.0000</text>
</g>
<!-- 1358480082944* -->
<g id="node2" class="node">
<title>1358480082944*</title>
<ellipse fill="none" stroke="black" cx="2991" cy="-72.5" rx="27" ry="18"/>
<text text-anchor="middle" x="2991" y="-67.08" font-family="Times New Roman,serif" font-size="14.00">*</text>
</g>
<!-- 1358480082944*&#45;&gt;1358480082944 -->
<g id="edge1" class="edge">
<title>1358480082944*&#45;&gt;1358480082944</title>
<path fill="none" stroke="black" d="M3018.26,-72.5C3025.31,-72.5 3033.43,-72.5 3042.16,-72.5"/>
<polygon fill="black" stroke="black" points="3042,-76 3052,-72.5 3042,-69 3042,-76"/>
</g>
<!-- 1358196671504 -->
<g id="node3" class="node">
<title>1358196671504</title>
<polygon fill="none" stroke="black" points="1.5,-194.5 1.5,-230.5 193.5,-230.5 193.5,-194.5 1.5,-194.5"/>
<text text-anchor="middle" x="16.25" y="-207.2" font-family="Times New Roman,serif" font-size="14.00">x1</text>
<polyline fill="none" stroke="black" points="31,-194.75 31,-230.5"/>
<text text-anchor="middle" x="71.25" y="-207.2" font-family="Times New Roman,serif" font-size="14.00">data 3.0000</text>
<polyline fill="none" stroke="black" points="111.5,-194.75 111.5,-230.5"/>
<text text-anchor="middle" x="152.5" y="-207.2" font-family="Times New Roman,serif" font-size="14.00">grad 0.0133</text>
</g>
<!-- 1358480081456* -->
<g id="node6" class="node">
<title>1358480081456*</title>
<ellipse fill="none" stroke="black" cx="258" cy="-157.5" rx="27" ry="18"/>
<text text-anchor="middle" x="258" y="-152.07" font-family="Times New Roman,serif" font-size="14.00">*</text>
</g>
<!-- 1358196671504&#45;&gt;1358480081456* -->
<g id="edge18" class="edge">
<title>1358196671504&#45;&gt;1358480081456*</title>
<path fill="none" stroke="black" d="M169.25,-194.04C177.99,-191.37 186.74,-188.5 195,-185.5 205.08,-181.84 215.81,-177.25 225.46,-172.85"/>
<polygon fill="black" stroke="black" points="226.85,-176.07 234.44,-168.67 223.9,-169.72 226.85,-176.07"/>
</g>
<!-- 1358480082464 -->
<g id="node4" class="node">
<title>1358480082464</title>
<polygon fill="none" stroke="black" points="1727.25,-110.5 1727.25,-146.5 1940.25,-146.5 1940.25,-110.5 1727.25,-110.5"/>
<text text-anchor="middle" x="1750.25" y="-123.2" font-family="Times New Roman,serif" font-size="14.00">None</text>
<polyline fill="none" stroke="black" points="1773.25,-110.75 1773.25,-146.5"/>
<text text-anchor="middle" x="1813.5" y="-123.2" font-family="Times New Roman,serif" font-size="14.00">data 1.0000</text>
<polyline fill="none" stroke="black" points="1853.75,-110.75 1853.75,-146.5"/>
<text text-anchor="middle" x="1897" y="-123.2" font-family="Times New Roman,serif" font-size="14.00">grad &#45;0.0008</text>
</g>
<!-- 1358480082512+ -->
<g id="node8" class="node">
<title>1358480082512+</title>
<ellipse fill="none" stroke="black" cx="2021.25" cy="-100.5" rx="27" ry="18"/>
<text text-anchor="middle" x="2021.25" y="-95.08" font-family="Times New Roman,serif" font-size="14.00">+</text>
</g>
<!-- 1358480082464&#45;&gt;1358480082512+ -->
<g id="edge23" class="edge">
<title>1358480082464&#45;&gt;1358480082512+</title>
<path fill="none" stroke="black" d="M1940.5,-112.54C1955.8,-110.23 1970.61,-107.99 1983.23,-106.09"/>
<polygon fill="black" stroke="black" points="1983.74,-109.55 1993.11,-104.6 1982.7,-102.63 1983.74,-109.55"/>
</g>
<!-- 1358480081456 -->
<g id="node5" class="node">
<title>1358480081456</title>
<polygon fill="none" stroke="black" points="321,-139.5 321,-175.5 536.25,-175.5 536.25,-139.5 321,-139.5"/>
<text text-anchor="middle" x="344" y="-152.2" font-family="Times New Roman,serif" font-size="14.00">x1w1</text>
<polyline fill="none" stroke="black" points="367,-139.75 367,-175.5"/>
<text text-anchor="middle" x="410.62" y="-152.2" font-family="Times New Roman,serif" font-size="14.00">data 12.0000</text>
<polyline fill="none" stroke="black" points="454.25,-139.75 454.25,-175.5"/>
<text text-anchor="middle" x="495.25" y="-152.2" font-family="Times New Roman,serif" font-size="14.00">grad 0.0033</text>
</g>
<!-- 1358480081168+ -->
<g id="node18" class="node">
<title>1358480081168+</title>
<ellipse fill="none" stroke="black" cx="599.25" cy="-129.5" rx="27" ry="18"/>
<text text-anchor="middle" x="599.25" y="-124.08" font-family="Times New Roman,serif" font-size="14.00">+</text>
</g>
<!-- 1358480081456&#45;&gt;1358480081168+ -->
<g id="edge27" class="edge">
<title>1358480081456&#45;&gt;1358480081168+</title>
<path fill="none" stroke="black" d="M536.42,-139.77C545.17,-138.31 553.57,-136.92 561.21,-135.65"/>
<polygon fill="black" stroke="black" points="561.73,-139.11 571.03,-134.02 560.59,-132.21 561.73,-139.11"/>
</g>
<!-- 1358480081456*&#45;&gt;1358480081456 -->
<g id="edge2" class="edge">
<title>1358480081456*&#45;&gt;1358480081456</title>
<path fill="none" stroke="black" d="M285.35,-157.5C292.45,-157.5 300.61,-157.5 309.36,-157.5"/>
<polygon fill="black" stroke="black" points="309.2,-161 319.2,-157.5 309.2,-154 309.2,-161"/>
</g>
<!-- 1358480082512 -->
<g id="node7" class="node">
<title>1358480082512</title>
<polygon fill="none" stroke="black" points="2084.25,-82.5 2084.25,-118.5 2337.75,-118.5 2337.75,-82.5 2084.25,-82.5"/>
<text text-anchor="middle" x="2107.25" y="-95.2" font-family="Times New Roman,serif" font-size="14.00">None</text>
<polyline fill="none" stroke="black" points="2130.25,-82.75 2130.25,-118.5"/>
<text text-anchor="middle" x="2190.75" y="-95.2" font-family="Times New Roman,serif" font-size="14.00">data 1202605.2842</text>
<polyline fill="none" stroke="black" points="2251.25,-82.75 2251.25,-118.5"/>
<text text-anchor="middle" x="2294.5" y="-95.2" font-family="Times New Roman,serif" font-size="14.00">grad &#45;0.0008</text>
</g>
<!-- 1358480082704**&#45;1 -->
<g id="node16" class="node">
<title>1358480082704**&#45;1</title>
<ellipse fill="none" stroke="black" cx="2498.25" cy="-100.5" rx="27.11" ry="18"/>
<text text-anchor="middle" x="2498.25" y="-95.08" font-family="Times New Roman,serif" font-size="14.00">**&#45;1</text>
</g>
<!-- 1358480082512&#45;&gt;1358480082704**&#45;1 -->
<g id="edge11" class="edge">
<title>1358480082512&#45;&gt;1358480082704**&#45;1</title>
<path fill="none" stroke="black" d="M2337.95,-100.5C2382.01,-100.5 2428.24,-100.5 2459.47,-100.5"/>
<polygon fill="black" stroke="black" points="2459.16,-104 2469.16,-100.5 2459.16,-97 2459.16,-104"/>
</g>
<!-- 1358480082512+&#45;&gt;1358480082512 -->
<g id="edge3" class="edge">
<title>1358480082512+&#45;&gt;1358480082512</title>
<path fill="none" stroke="black" d="M2048.36,-100.5C2055.52,-100.5 2063.81,-100.5 2072.78,-100.5"/>
<polygon fill="black" stroke="black" points="2072.51,-104 2082.51,-100.5 2072.51,-97 2072.51,-104"/>
</g>
<!-- 1358480082032 -->
<g id="node9" class="node">
<title>1358480082032</title>
<polygon fill="none" stroke="black" points="1709.25,-55.5 1709.25,-91.5 1958.25,-91.5 1958.25,-55.5 1709.25,-55.5"/>
<text text-anchor="middle" x="1732.25" y="-68.2" font-family="Times New Roman,serif" font-size="14.00">None</text>
<polyline fill="none" stroke="black" points="1755.25,-55.75 1755.25,-91.5"/>
<text text-anchor="middle" x="1815.75" y="-68.2" font-family="Times New Roman,serif" font-size="14.00">data 1202604.2842</text>
<polyline fill="none" stroke="black" points="1876.25,-55.75 1876.25,-91.5"/>
<text text-anchor="middle" x="1917.25" y="-68.2" font-family="Times New Roman,serif" font-size="14.00">grad 0.0000</text>
</g>
<!-- 1358480082032&#45;&gt;1358480082512+ -->
<g id="edge28" class="edge">
<title>1358480082032&#45;&gt;1358480082512+</title>
<path fill="none" stroke="black" d="M1958.74,-91.55C1967.52,-92.82 1975.88,-94.04 1983.44,-95.14"/>
<polygon fill="black" stroke="black" points="1982.72,-98.57 1993.12,-96.55 1983.73,-91.65 1982.72,-98.57"/>
</g>
<!-- 1358480082272+ -->
<g id="node23" class="node">
<title>1358480082272+</title>
<ellipse fill="none" stroke="black" cx="2021.25" cy="-45.5" rx="27" ry="18"/>
<text text-anchor="middle" x="2021.25" y="-40.08" font-family="Times New Roman,serif" font-size="14.00">+</text>
</g>
<!-- 1358480082032&#45;&gt;1358480082272+ -->
<g id="edge24" class="edge">
<title>1358480082032&#45;&gt;1358480082272+</title>
<path fill="none" stroke="black" d="M1957.19,-55.02C1966.44,-53.62 1975.25,-52.29 1983.19,-51.09"/>
<polygon fill="black" stroke="black" points="1983.66,-54.56 1993.03,-49.61 1982.62,-47.64 1983.66,-54.56"/>
</g>
<!-- 1358480082032exp -->
<g id="node10" class="node">
<title>1358480082032exp</title>
<ellipse fill="none" stroke="black" cx="1646.25" cy="-73.5" rx="27" ry="18"/>
<text text-anchor="middle" x="1646.25" y="-68.08" font-family="Times New Roman,serif" font-size="14.00">exp</text>
</g>
<!-- 1358480082032exp&#45;&gt;1358480082032 -->
<g id="edge4" class="edge">
<title>1358480082032exp&#45;&gt;1358480082032</title>
<path fill="none" stroke="black" d="M1673.43,-73.5C1680.61,-73.5 1688.9,-73.5 1697.86,-73.5"/>
<polygon fill="black" stroke="black" points="1697.57,-77 1707.57,-73.5 1697.57,-70 1697.57,-77"/>
</g>
<!-- 1358469672080 -->
<g id="node11" class="node">
<title>1358469672080</title>
<polygon fill="none" stroke="black" points="324.38,-84.5 324.38,-120.5 532.88,-120.5 532.88,-84.5 324.38,-84.5"/>
<text text-anchor="middle" x="347.38" y="-97.2" font-family="Times New Roman,serif" font-size="14.00">x0w0</text>
<polyline fill="none" stroke="black" points="370.38,-84.75 370.38,-120.5"/>
<text text-anchor="middle" x="410.62" y="-97.2" font-family="Times New Roman,serif" font-size="14.00">data 2.0000</text>
<polyline fill="none" stroke="black" points="450.88,-84.75 450.88,-120.5"/>
<text text-anchor="middle" x="491.88" y="-97.2" font-family="Times New Roman,serif" font-size="14.00">grad 0.0033</text>
</g>
<!-- 1358469672080&#45;&gt;1358480081168+ -->
<g id="edge21" class="edge">
<title>1358469672080&#45;&gt;1358480081168+</title>
<path fill="none" stroke="black" d="M533.06,-119.06C543.09,-120.67 552.73,-122.21 561.39,-123.6"/>
<polygon fill="black" stroke="black" points="560.61,-127.02 571.03,-125.14 561.71,-120.11 560.61,-127.02"/>
</g>
<!-- 1358469672080* -->
<g id="node12" class="node">
<title>1358469672080*</title>
<ellipse fill="none" stroke="black" cx="258" cy="-102.5" rx="27" ry="18"/>
<text text-anchor="middle" x="258" y="-97.08" font-family="Times New Roman,serif" font-size="14.00">*</text>
</g>
<!-- 1358469672080*&#45;&gt;1358469672080 -->
<g id="edge5" class="edge">
<title>1358469672080*&#45;&gt;1358469672080</title>
<path fill="none" stroke="black" d="M285.35,-102.5C293.29,-102.5 302.56,-102.5 312.49,-102.5"/>
<polygon fill="black" stroke="black" points="312.44,-106 322.44,-102.5 312.44,-99 312.44,-106"/>
</g>
<!-- 1358469778080 -->
<g id="node13" class="node">
<title>1358469778080</title>
<polygon fill="none" stroke="black" points="0,-139.5 0,-175.5 195,-175.5 195,-139.5 0,-139.5"/>
<text text-anchor="middle" x="16.25" y="-152.2" font-family="Times New Roman,serif" font-size="14.00">w1</text>
<polyline fill="none" stroke="black" points="32.5,-139.75 32.5,-175.5"/>
<text text-anchor="middle" x="72.75" y="-152.2" font-family="Times New Roman,serif" font-size="14.00">data 4.0000</text>
<polyline fill="none" stroke="black" points="113,-139.75 113,-175.5"/>
<text text-anchor="middle" x="154" y="-152.2" font-family="Times New Roman,serif" font-size="14.00">grad 0.0100</text>
</g>
<!-- 1358469778080&#45;&gt;1358480081456* -->
<g id="edge16" class="edge">
<title>1358469778080&#45;&gt;1358480081456*</title>
<path fill="none" stroke="black" d="M195.27,-157.5C203.62,-157.5 211.71,-157.5 219.12,-157.5"/>
<polygon fill="black" stroke="black" points="219.01,-161 229.01,-157.5 219.01,-154 219.01,-161"/>
</g>
<!-- 1358437016320 -->
<g id="node14" class="node">
<title>1358437016320</title>
<polygon fill="none" stroke="black" points="0,-84.5 0,-120.5 195,-120.5 195,-84.5 0,-84.5"/>
<text text-anchor="middle" x="16.25" y="-97.2" font-family="Times New Roman,serif" font-size="14.00">w0</text>
<polyline fill="none" stroke="black" points="32.5,-84.75 32.5,-120.5"/>
<text text-anchor="middle" x="72.75" y="-97.2" font-family="Times New Roman,serif" font-size="14.00">data 2.0000</text>
<polyline fill="none" stroke="black" points="113,-84.75 113,-120.5"/>
<text text-anchor="middle" x="154" y="-97.2" font-family="Times New Roman,serif" font-size="14.00">grad 0.0033</text>
</g>
<!-- 1358437016320&#45;&gt;1358469672080* -->
<g id="edge19" class="edge">
<title>1358437016320&#45;&gt;1358469672080*</title>
<path fill="none" stroke="black" d="M195.27,-102.5C203.62,-102.5 211.71,-102.5 219.12,-102.5"/>
<polygon fill="black" stroke="black" points="219.01,-106 229.01,-102.5 219.01,-99 219.01,-106"/>
</g>
<!-- 1358480082704 -->
<g id="node15" class="node">
<title>1358480082704</title>
<polygon fill="none" stroke="black" points="2658.75,-80.5 2658.75,-116.5 2928,-116.5 2928,-80.5 2658.75,-80.5"/>
<text text-anchor="middle" x="2681.75" y="-93.2" font-family="Times New Roman,serif" font-size="14.00">None</text>
<polyline fill="none" stroke="black" points="2704.75,-80.75 2704.75,-116.5"/>
<text text-anchor="middle" x="2745" y="-93.2" font-family="Times New Roman,serif" font-size="14.00">data 0.0000</text>
<polyline fill="none" stroke="black" points="2785.25,-80.75 2785.25,-116.5"/>
<text text-anchor="middle" x="2856.62" y="-93.2" font-family="Times New Roman,serif" font-size="14.00">grad 1202603284.1648</text>
</g>
<!-- 1358480082704&#45;&gt;1358480082944* -->
<g id="edge20" class="edge">
<title>1358480082704&#45;&gt;1358480082944*</title>
<path fill="none" stroke="black" d="M2928.37,-80.69C2937.05,-79.54 2945.29,-78.44 2952.75,-77.45"/>
<polygon fill="black" stroke="black" points="2953.19,-80.92 2962.65,-76.14 2952.27,-73.98 2953.19,-80.92"/>
</g>
<!-- 1358480082704**&#45;1&#45;&gt;1358480082704 -->
<g id="edge6" class="edge">
<title>1358480082704**&#45;1&#45;&gt;1358480082704</title>
<path fill="none" stroke="black" d="M2525.78,-100.32C2553.84,-100.13 2600.38,-99.81 2646.8,-99.49"/>
<polygon fill="black" stroke="black" points="2646.77,-102.99 2656.75,-99.43 2646.73,-95.99 2646.77,-102.99"/>
</g>
<!-- 1358480081168 -->
<g id="node17" class="node">
<title>1358480081168</title>
<polygon fill="none" stroke="black" points="662.25,-111.5 662.25,-147.5 907.5,-147.5 907.5,-111.5 662.25,-111.5"/>
<text text-anchor="middle" x="700.25" y="-124.2" font-family="Times New Roman,serif" font-size="14.00">x0w0x1w1</text>
<polyline fill="none" stroke="black" points="738.25,-111.75 738.25,-147.5"/>
<text text-anchor="middle" x="781.88" y="-124.2" font-family="Times New Roman,serif" font-size="14.00">data 14.0000</text>
<polyline fill="none" stroke="black" points="825.5,-111.75 825.5,-147.5"/>
<text text-anchor="middle" x="866.5" y="-124.2" font-family="Times New Roman,serif" font-size="14.00">grad 0.0033</text>
</g>
<!-- 1358480081216+ -->
<g id="node21" class="node">
<title>1358480081216+</title>
<ellipse fill="none" stroke="black" cx="970.5" cy="-101.5" rx="27" ry="18"/>
<text text-anchor="middle" x="970.5" y="-96.08" font-family="Times New Roman,serif" font-size="14.00">+</text>
</g>
<!-- 1358480081168&#45;&gt;1358480081216+ -->
<g id="edge26" class="edge">
<title>1358480081168&#45;&gt;1358480081216+</title>
<path fill="none" stroke="black" d="M907.08,-111.02C916.14,-109.64 924.78,-108.32 932.58,-107.13"/>
<polygon fill="black" stroke="black" points="932.88,-110.63 942.23,-105.66 931.82,-103.71 932.88,-110.63"/>
</g>
<!-- 1358480081168+&#45;&gt;1358480081168 -->
<g id="edge7" class="edge">
<title>1358480081168+&#45;&gt;1358480081168</title>
<path fill="none" stroke="black" d="M626.56,-129.5C633.6,-129.5 641.72,-129.5 650.47,-129.5"/>
<polygon fill="black" stroke="black" points="650.36,-133 660.36,-129.5 650.36,-126 650.36,-133"/>
</g>
<!-- 1358480082224 -->
<g id="node19" class="node">
<title>1358480082224</title>
<polygon fill="none" stroke="black" points="1727.25,-0.5 1727.25,-36.5 1940.25,-36.5 1940.25,-0.5 1727.25,-0.5"/>
<text text-anchor="middle" x="1750.25" y="-13.2" font-family="Times New Roman,serif" font-size="14.00">None</text>
<polyline fill="none" stroke="black" points="1773.25,-0.75 1773.25,-36.5"/>
<text text-anchor="middle" x="1815.75" y="-13.2" font-family="Times New Roman,serif" font-size="14.00">data &#45;1.0000</text>
<polyline fill="none" stroke="black" points="1858.25,-0.75 1858.25,-36.5"/>
<text text-anchor="middle" x="1899.25" y="-13.2" font-family="Times New Roman,serif" font-size="14.00">grad 0.0008</text>
</g>
<!-- 1358480082224&#45;&gt;1358480082272+ -->
<g id="edge25" class="edge">
<title>1358480082224&#45;&gt;1358480082272+</title>
<path fill="none" stroke="black" d="M1940.5,-33.89C1955.8,-36.12 1970.61,-38.27 1983.23,-40.11"/>
<polygon fill="black" stroke="black" points="1982.71,-43.57 1993.11,-41.55 1983.71,-36.65 1982.71,-43.57"/>
</g>
<!-- 1358480081216 -->
<g id="node20" class="node">
<title>1358480081216</title>
<polygon fill="none" stroke="black" points="1035.75,-83.5 1035.75,-119.5 1239.75,-119.5 1239.75,-83.5 1035.75,-83.5"/>
<text text-anchor="middle" x="1056.5" y="-96.2" font-family="Times New Roman,serif" font-size="14.00">Sum</text>
<polyline fill="none" stroke="black" points="1077.25,-83.75 1077.25,-119.5"/>
<text text-anchor="middle" x="1117.5" y="-96.2" font-family="Times New Roman,serif" font-size="14.00">data 7.0000</text>
<polyline fill="none" stroke="black" points="1157.75,-83.75 1157.75,-119.5"/>
<text text-anchor="middle" x="1198.75" y="-96.2" font-family="Times New Roman,serif" font-size="14.00">grad 0.0033</text>
</g>
<!-- 1358480081888* -->
<g id="node27" class="node">
<title>1358480081888*</title>
<ellipse fill="none" stroke="black" cx="1305" cy="-73.5" rx="27" ry="18"/>
<text text-anchor="middle" x="1305" y="-68.08" font-family="Times New Roman,serif" font-size="14.00">*</text>
</g>
<!-- 1358480081216&#45;&gt;1358480081888* -->
<g id="edge13" class="edge">
<title>1358480081216&#45;&gt;1358480081888*</title>
<path fill="none" stroke="black" d="M1240.11,-84.33C1249.74,-82.69 1259.01,-81.12 1267.35,-79.71"/>
<polygon fill="black" stroke="black" points="1267.72,-83.2 1277,-78.08 1266.55,-76.3 1267.72,-83.2"/>
</g>
<!-- 1358480081216+&#45;&gt;1358480081216 -->
<g id="edge8" class="edge">
<title>1358480081216+&#45;&gt;1358480081216</title>
<path fill="none" stroke="black" d="M997.68,-101.5C1005.49,-101.5 1014.58,-101.5 1024.3,-101.5"/>
<polygon fill="black" stroke="black" points="1024,-105 1034,-101.5 1024,-98 1024,-105"/>
</g>
<!-- 1358480082272 -->
<g id="node22" class="node">
<title>1358480082272</title>
<polygon fill="none" stroke="black" points="2373.75,-27.5 2373.75,-63.5 2622.75,-63.5 2622.75,-27.5 2373.75,-27.5"/>
<text text-anchor="middle" x="2396.75" y="-40.2" font-family="Times New Roman,serif" font-size="14.00">None</text>
<polyline fill="none" stroke="black" points="2419.75,-27.75 2419.75,-63.5"/>
<text text-anchor="middle" x="2480.25" y="-40.2" font-family="Times New Roman,serif" font-size="14.00">data 1202603.2842</text>
<polyline fill="none" stroke="black" points="2540.75,-27.75 2540.75,-63.5"/>
<text text-anchor="middle" x="2581.75" y="-40.2" font-family="Times New Roman,serif" font-size="14.00">grad 0.0008</text>
</g>
<!-- 1358480082272&#45;&gt;1358480082944* -->
<g id="edge17" class="edge">
<title>1358480082272&#45;&gt;1358480082944*</title>
<path fill="none" stroke="black" d="M2623.09,-52.31C2731.8,-58.29 2883.09,-66.62 2952.49,-70.44"/>
<polygon fill="black" stroke="black" points="2952,-73.91 2962.18,-70.97 2952.39,-66.93 2952,-73.91"/>
</g>
<!-- 1358480082272+&#45;&gt;1358480082272 -->
<g id="edge9" class="edge">
<title>1358480082272+&#45;&gt;1358480082272</title>
<path fill="none" stroke="black" d="M2048.46,-45.5C2107.12,-45.5 2252.38,-45.5 2361.87,-45.5"/>
<polygon fill="black" stroke="black" points="2361.84,-49 2371.84,-45.5 2361.84,-42 2361.84,-49"/>
</g>
<!-- 1358446195104 -->
<g id="node24" class="node">
<title>1358446195104</title>
<polygon fill="none" stroke="black" points="689.62,-56.5 689.62,-92.5 880.12,-92.5 880.12,-56.5 689.62,-56.5"/>
<text text-anchor="middle" x="701.38" y="-69.2" font-family="Times New Roman,serif" font-size="14.00">b</text>
<polyline fill="none" stroke="black" points="713.12,-56.75 713.12,-92.5"/>
<text text-anchor="middle" x="755.62" y="-69.2" font-family="Times New Roman,serif" font-size="14.00">data &#45;7.0000</text>
<polyline fill="none" stroke="black" points="798.12,-56.75 798.12,-92.5"/>
<text text-anchor="middle" x="839.12" y="-69.2" font-family="Times New Roman,serif" font-size="14.00">grad 0.0033</text>
</g>
<!-- 1358446195104&#45;&gt;1358480081216+ -->
<g id="edge15" class="edge">
<title>1358446195104&#45;&gt;1358480081216+</title>
<path fill="none" stroke="black" d="M880.38,-88.4C899,-91.13 917.48,-93.85 932.74,-96.1"/>
<polygon fill="black" stroke="black" points="931.84,-99.5 942.24,-97.49 932.85,-92.57 931.84,-99.5"/>
</g>
<!-- 1358480081840 -->
<g id="node25" class="node">
<title>1358480081840</title>
<polygon fill="none" stroke="black" points="1033.5,-28.5 1033.5,-64.5 1242,-64.5 1242,-28.5 1033.5,-28.5"/>
<text text-anchor="middle" x="1056.5" y="-41.2" font-family="Times New Roman,serif" font-size="14.00">None</text>
<polyline fill="none" stroke="black" points="1079.5,-28.75 1079.5,-64.5"/>
<text text-anchor="middle" x="1119.75" y="-41.2" font-family="Times New Roman,serif" font-size="14.00">data 2.0000</text>
<polyline fill="none" stroke="black" points="1160,-28.75 1160,-64.5"/>
<text text-anchor="middle" x="1201" y="-41.2" font-family="Times New Roman,serif" font-size="14.00">grad 0.0116</text>
</g>
<!-- 1358480081840&#45;&gt;1358480081888* -->
<g id="edge14" class="edge">
<title>1358480081840&#45;&gt;1358480081888*</title>
<path fill="none" stroke="black" d="M1242.47,-63.45C1251.15,-64.86 1259.5,-66.23 1267.09,-67.47"/>
<polygon fill="black" stroke="black" points="1266.42,-70.91 1276.86,-69.06 1267.55,-64 1266.42,-70.91"/>
</g>
<!-- 1358480081888 -->
<g id="node26" class="node">
<title>1358480081888</title>
<polygon fill="none" stroke="black" points="1368,-55.5 1368,-91.5 1583.25,-91.5 1583.25,-55.5 1368,-55.5"/>
<text text-anchor="middle" x="1391" y="-68.2" font-family="Times New Roman,serif" font-size="14.00">None</text>
<polyline fill="none" stroke="black" points="1414,-55.75 1414,-91.5"/>
<text text-anchor="middle" x="1457.62" y="-68.2" font-family="Times New Roman,serif" font-size="14.00">data 14.0000</text>
<polyline fill="none" stroke="black" points="1501.25,-55.75 1501.25,-91.5"/>
<text text-anchor="middle" x="1542.25" y="-68.2" font-family="Times New Roman,serif" font-size="14.00">grad 0.0017</text>
</g>
<!-- 1358480081888&#45;&gt;1358480082032exp -->
<g id="edge12" class="edge">
<title>1358480081888&#45;&gt;1358480082032exp</title>
<path fill="none" stroke="black" d="M1583.42,-73.5C1591.89,-73.5 1600.04,-73.5 1607.49,-73.5"/>
<polygon fill="black" stroke="black" points="1607.4,-77 1617.4,-73.5 1607.4,-70 1607.4,-77"/>
</g>
<!-- 1358480081888*&#45;&gt;1358480081888 -->
<g id="edge10" class="edge">
<title>1358480081888*&#45;&gt;1358480081888</title>
<path fill="none" stroke="black" d="M1332.35,-73.5C1339.45,-73.5 1347.61,-73.5 1356.36,-73.5"/>
<polygon fill="black" stroke="black" points="1356.2,-77 1366.2,-73.5 1356.2,-70 1356.2,-77"/>
</g>
<!-- 1358479938032 -->
<g id="node28" class="node">
<title>1358479938032</title>
<polygon fill="none" stroke="black" points="1.5,-29.5 1.5,-65.5 193.5,-65.5 193.5,-29.5 1.5,-29.5"/>
<text text-anchor="middle" x="16.25" y="-42.2" font-family="Times New Roman,serif" font-size="14.00">x0</text>
<polyline fill="none" stroke="black" points="31,-29.75 31,-65.5"/>
<text text-anchor="middle" x="71.25" y="-42.2" font-family="Times New Roman,serif" font-size="14.00">data 1.0000</text>
<polyline fill="none" stroke="black" points="111.5,-29.75 111.5,-65.5"/>
<text text-anchor="middle" x="152.5" y="-42.2" font-family="Times New Roman,serif" font-size="14.00">grad 0.0067</text>
</g>
<!-- 1358479938032&#45;&gt;1358469672080* -->
<g id="edge22" class="edge">
<title>1358479938032&#45;&gt;1358469672080*</title>
<path fill="none" stroke="black" d="M169.25,-65.96C177.99,-68.63 186.74,-71.5 195,-74.5 205.08,-78.16 215.81,-82.75 225.46,-87.15"/>
<polygon fill="black" stroke="black" points="223.9,-90.28 234.44,-91.33 226.85,-83.93 223.9,-90.28"/>
</g>
</g>
</svg>
