<?xml version="1.0" encoding="UTF-8" standalone="no"?>
<!DOCTYPE svg PUBLIC "-//W3C//DTD SVG 1.1//EN"
 "http://www.w3.org/Graphics/SVG/1.1/DTD/svg11.dtd">
<!-- Generated by graphviz version 10.0.1 (20240210.2158)
 -->
<!-- Pages: 1 -->
<svg width="1606pt" height="210pt"
 viewBox="0.00 0.00 1606.25 210.00" xmlns="http://www.w3.org/2000/svg" xmlns:xlink="http://www.w3.org/1999/xlink">
<g id="graph0" class="graph" transform="scale(1 1) rotate(0) translate(4 206)">
<polygon fill="white" stroke="none" points="-4,4 -4,-206 1602.25,-206 1602.25,4 -4,4"/>
<!-- 1358479949312 -->
<g id="node1" class="node">
<title>1358479949312</title>
<polygon fill="none" stroke="black" points="662.25,-82.5 662.25,-118.5 907.5,-118.5 907.5,-82.5 662.25,-82.5"/>
<text text-anchor="middle" x="700.25" y="-95.2" font-family="Times New Roman,serif" font-size="14.00">x0w0x1w1</text>
<polyline fill="none" stroke="black" points="738.25,-82.75 738.25,-118.5"/>
<text text-anchor="middle" x="781.88" y="-95.2" font-family="Times New Roman,serif" font-size="14.00">data 14.0000</text>
<polyline fill="none" stroke="black" points="825.5,-82.75 825.5,-118.5"/>
<text text-anchor="middle" x="866.5" y="-95.2" font-family="Times New Roman,serif" font-size="14.00">grad 0.0033</text>
</g>
<!-- 1358479949504+ -->
<g id="node8" class="node">
<title>1358479949504+</title>
<ellipse fill="none" stroke="black" cx="970.5" cy="-127.5" rx="27" ry="18"/>
<text text-anchor="middle" x="970.5" y="-122.08" font-family="Times New Roman,serif" font-size="14.00">+</text>
</g>
<!-- 1358479949312&#45;&gt;1358479949504+ -->
<g id="edge9" class="edge">
<title>1358479949312&#45;&gt;1358479949504+</title>
<path fill="none" stroke="black" d="M907.84,-118.43C916.63,-119.73 924.99,-120.96 932.57,-122.07"/>
<polygon fill="black" stroke="black" points="931.88,-125.51 942.28,-123.5 932.9,-118.58 931.88,-125.51"/>
</g>
<!-- 1358479949312+ -->
<g id="node2" class="node">
<title>1358479949312+</title>
<ellipse fill="none" stroke="black" cx="599.25" cy="-100.5" rx="27" ry="18"/>
<text text-anchor="middle" x="599.25" y="-95.08" font-family="Times New Roman,serif" font-size="14.00">+</text>
</g>
<!-- 1358479949312+&#45;&gt;1358479949312 -->
<g id="edge1" class="edge">
<title>1358479949312+&#45;&gt;1358479949312</title>
<path fill="none" stroke="black" d="M626.56,-100.5C633.6,-100.5 641.72,-100.5 650.47,-100.5"/>
<polygon fill="black" stroke="black" points="650.36,-104 660.36,-100.5 650.36,-97 650.36,-104"/>
</g>
<!-- 1358197244944 -->
<g id="node3" class="node">
<title>1358197244944</title>
<polygon fill="none" stroke="black" points="1.5,-55.5 1.5,-91.5 193.5,-91.5 193.5,-55.5 1.5,-55.5"/>
<text text-anchor="middle" x="16.25" y="-68.2" font-family="Times New Roman,serif" font-size="14.00">x1</text>
<polyline fill="none" stroke="black" points="31,-55.75 31,-91.5"/>
<text text-anchor="middle" x="71.25" y="-68.2" font-family="Times New Roman,serif" font-size="14.00">data 3.0000</text>
<polyline fill="none" stroke="black" points="111.5,-55.75 111.5,-91.5"/>
<text text-anchor="middle" x="152.5" y="-68.2" font-family="Times New Roman,serif" font-size="14.00">grad 0.0133</text>
</g>
<!-- 1358479949120* -->
<g id="node10" class="node">
<title>1358479949120*</title>
<ellipse fill="none" stroke="black" cx="258" cy="-73.5" rx="27" ry="18"/>
<text text-anchor="middle" x="258" y="-68.08" font-family="Times New Roman,serif" font-size="14.00">*</text>
</g>
<!-- 1358197244944&#45;&gt;1358479949120* -->
<g id="edge13" class="edge">
<title>1358197244944&#45;&gt;1358479949120*</title>
<path fill="none" stroke="black" d="M193.9,-73.5C202.87,-73.5 211.55,-73.5 219.46,-73.5"/>
<polygon fill="black" stroke="black" points="219.28,-77 229.28,-73.5 219.28,-70 219.28,-77"/>
</g>
<!-- 1358478941248 -->
<g id="node4" class="node">
<title>1358478941248</title>
<polygon fill="none" stroke="black" points="689.62,-137.5 689.62,-173.5 880.12,-173.5 880.12,-137.5 689.62,-137.5"/>
<text text-anchor="middle" x="701.38" y="-150.2" font-family="Times New Roman,serif" font-size="14.00">b</text>
<polyline fill="none" stroke="black" points="713.12,-137.75 713.12,-173.5"/>
<text text-anchor="middle" x="755.62" y="-150.2" font-family="Times New Roman,serif" font-size="14.00">data &#45;7.0000</text>
<polyline fill="none" stroke="black" points="798.12,-137.75 798.12,-173.5"/>
<text text-anchor="middle" x="839.12" y="-150.2" font-family="Times New Roman,serif" font-size="14.00">grad 0.0033</text>
</g>
<!-- 1358478941248&#45;&gt;1358479949504+ -->
<g id="edge6" class="edge">
<title>1358478941248&#45;&gt;1358479949504+</title>
<path fill="none" stroke="black" d="M880.38,-141.09C899,-138.25 917.48,-135.43 932.74,-133.1"/>
<polygon fill="black" stroke="black" points="932.88,-136.62 942.24,-131.66 931.83,-129.7 932.88,-136.62"/>
</g>
<!-- 1358479948976 -->
<g id="node5" class="node">
<title>1358479948976</title>
<polygon fill="none" stroke="black" points="324.38,-110.5 324.38,-146.5 532.88,-146.5 532.88,-110.5 324.38,-110.5"/>
<text text-anchor="middle" x="347.38" y="-123.2" font-family="Times New Roman,serif" font-size="14.00">x0w0</text>
<polyline fill="none" stroke="black" points="370.38,-110.75 370.38,-146.5"/>
<text text-anchor="middle" x="410.62" y="-123.2" font-family="Times New Roman,serif" font-size="14.00">data 2.0000</text>
<polyline fill="none" stroke="black" points="450.88,-110.75 450.88,-146.5"/>
<text text-anchor="middle" x="491.88" y="-123.2" font-family="Times New Roman,serif" font-size="14.00">grad 0.0033</text>
</g>
<!-- 1358479948976&#45;&gt;1358479949312+ -->
<g id="edge7" class="edge">
<title>1358479948976&#45;&gt;1358479949312+</title>
<path fill="none" stroke="black" d="M533.06,-111.33C543.09,-109.66 552.73,-108.06 561.39,-106.62"/>
<polygon fill="black" stroke="black" points="561.74,-110.11 571.04,-105.02 560.6,-103.2 561.74,-110.11"/>
</g>
<!-- 1358479948976* -->
<g id="node6" class="node">
<title>1358479948976*</title>
<ellipse fill="none" stroke="black" cx="258" cy="-128.5" rx="27" ry="18"/>
<text text-anchor="middle" x="258" y="-123.08" font-family="Times New Roman,serif" font-size="14.00">*</text>
</g>
<!-- 1358479948976*&#45;&gt;1358479948976 -->
<g id="edge2" class="edge">
<title>1358479948976*&#45;&gt;1358479948976</title>
<path fill="none" stroke="black" d="M285.35,-128.5C293.29,-128.5 302.56,-128.5 312.49,-128.5"/>
<polygon fill="black" stroke="black" points="312.44,-132 322.44,-128.5 312.44,-125 312.44,-132"/>
</g>
<!-- 1358479949504 -->
<g id="node7" class="node">
<title>1358479949504</title>
<polygon fill="none" stroke="black" points="1033.5,-109.5 1033.5,-145.5 1237.5,-145.5 1237.5,-109.5 1033.5,-109.5"/>
<text text-anchor="middle" x="1054.25" y="-122.2" font-family="Times New Roman,serif" font-size="14.00">Sum</text>
<polyline fill="none" stroke="black" points="1075,-109.75 1075,-145.5"/>
<text text-anchor="middle" x="1115.25" y="-122.2" font-family="Times New Roman,serif" font-size="14.00">data 7.0000</text>
<polyline fill="none" stroke="black" points="1155.5,-109.75 1155.5,-145.5"/>
<text text-anchor="middle" x="1196.5" y="-122.2" font-family="Times New Roman,serif" font-size="14.00">grad 0.0033</text>
</g>
<!-- 1358479949648tanh -->
<g id="node12" class="node">
<title>1358479949648tanh</title>
<ellipse fill="none" stroke="black" cx="1300.5" cy="-127.5" rx="27" ry="18"/>
<text text-anchor="middle" x="1300.5" y="-122.08" font-family="Times New Roman,serif" font-size="14.00">tanh</text>
</g>
<!-- 1358479949504&#45;&gt;1358479949648tanh -->
<g id="edge12" class="edge">
<title>1358479949504&#45;&gt;1358479949648tanh</title>
<path fill="none" stroke="black" d="M1237.88,-127.5C1246.27,-127.5 1254.37,-127.5 1261.78,-127.5"/>
<polygon fill="black" stroke="black" points="1261.65,-131 1271.65,-127.5 1261.65,-124 1261.65,-131"/>
</g>
<!-- 1358479949504+&#45;&gt;1358479949504 -->
<g id="edge3" class="edge">
<title>1358479949504+&#45;&gt;1358479949504</title>
<path fill="none" stroke="black" d="M997.69,-127.5C1004.84,-127.5 1013.06,-127.5 1021.86,-127.5"/>
<polygon fill="black" stroke="black" points="1021.75,-131 1031.75,-127.5 1021.75,-124 1021.75,-131"/>
</g>
<!-- 1358479949120 -->
<g id="node9" class="node">
<title>1358479949120</title>
<polygon fill="none" stroke="black" points="321,-55.5 321,-91.5 536.25,-91.5 536.25,-55.5 321,-55.5"/>
<text text-anchor="middle" x="344" y="-68.2" font-family="Times New Roman,serif" font-size="14.00">x1w1</text>
<polyline fill="none" stroke="black" points="367,-55.75 367,-91.5"/>
<text text-anchor="middle" x="410.62" y="-68.2" font-family="Times New Roman,serif" font-size="14.00">data 12.0000</text>
<polyline fill="none" stroke="black" points="454.25,-55.75 454.25,-91.5"/>
<text text-anchor="middle" x="495.25" y="-68.2" font-family="Times New Roman,serif" font-size="14.00">grad 0.0033</text>
</g>
<!-- 1358479949120&#45;&gt;1358479949312+ -->
<g id="edge8" class="edge">
<title>1358479949120&#45;&gt;1358479949312+</title>
<path fill="none" stroke="black" d="M536.42,-90.6C545.17,-92 553.57,-93.35 561.21,-94.57"/>
<polygon fill="black" stroke="black" points="560.6,-98.02 571.02,-96.14 561.7,-91.1 560.6,-98.02"/>
</g>
<!-- 1358479949120*&#45;&gt;1358479949120 -->
<g id="edge4" class="edge">
<title>1358479949120*&#45;&gt;1358479949120</title>
<path fill="none" stroke="black" d="M285.35,-73.5C292.45,-73.5 300.61,-73.5 309.36,-73.5"/>
<polygon fill="black" stroke="black" points="309.2,-77 319.2,-73.5 309.2,-70 309.2,-77"/>
</g>
<!-- 1358479949648 -->
<g id="node11" class="node">
<title>1358479949648</title>
<polygon fill="none" stroke="black" points="1363.5,-109.5 1363.5,-145.5 1598.25,-145.5 1598.25,-109.5 1363.5,-109.5"/>
<text text-anchor="middle" x="1389.5" y="-122.2" font-family="Times New Roman,serif" font-size="14.00">output</text>
<polyline fill="none" stroke="black" points="1415.5,-109.75 1415.5,-145.5"/>
<text text-anchor="middle" x="1455.75" y="-122.2" font-family="Times New Roman,serif" font-size="14.00">data 1.0000</text>
<polyline fill="none" stroke="black" points="1496,-109.75 1496,-145.5"/>
<text text-anchor="middle" x="1547.12" y="-122.2" font-family="Times New Roman,serif" font-size="14.00">grad 1000.0000</text>
</g>
<!-- 1358479949648tanh&#45;&gt;1358479949648 -->
<g id="edge5" class="edge">
<title>1358479949648tanh&#45;&gt;1358479949648</title>
<path fill="none" stroke="black" d="M1327.82,-127.5C1334.91,-127.5 1343.07,-127.5 1351.86,-127.5"/>
<polygon fill="black" stroke="black" points="1351.78,-131 1361.78,-127.5 1351.78,-124 1351.78,-131"/>
</g>
<!-- 1358197246816 -->
<g id="node13" class="node">
<title>1358197246816</title>
<polygon fill="none" stroke="black" points="1.5,-165.5 1.5,-201.5 193.5,-201.5 193.5,-165.5 1.5,-165.5"/>
<text text-anchor="middle" x="16.25" y="-178.2" font-family="Times New Roman,serif" font-size="14.00">x0</text>
<polyline fill="none" stroke="black" points="31,-165.75 31,-201.5"/>
<text text-anchor="middle" x="71.25" y="-178.2" font-family="Times New Roman,serif" font-size="14.00">data 1.0000</text>
<polyline fill="none" stroke="black" points="111.5,-165.75 111.5,-201.5"/>
<text text-anchor="middle" x="152.5" y="-178.2" font-family="Times New Roman,serif" font-size="14.00">grad 0.0067</text>
</g>
<!-- 1358197246816&#45;&gt;1358479948976* -->
<g id="edge14" class="edge">
<title>1358197246816&#45;&gt;1358479948976*</title>
<path fill="none" stroke="black" d="M169.25,-165.04C177.99,-162.37 186.74,-159.5 195,-156.5 205.08,-152.84 215.81,-148.25 225.46,-143.85"/>
<polygon fill="black" stroke="black" points="226.85,-147.07 234.44,-139.67 223.9,-140.72 226.85,-147.07"/>
</g>
<!-- 1358469672848 -->
<g id="node14" class="node">
<title>1358469672848</title>
<polygon fill="none" stroke="black" points="0,-0.5 0,-36.5 195,-36.5 195,-0.5 0,-0.5"/>
<text text-anchor="middle" x="16.25" y="-13.2" font-family="Times New Roman,serif" font-size="14.00">w1</text>
<polyline fill="none" stroke="black" points="32.5,-0.75 32.5,-36.5"/>
<text text-anchor="middle" x="72.75" y="-13.2" font-family="Times New Roman,serif" font-size="14.00">data 4.0000</text>
<polyline fill="none" stroke="black" points="113,-0.75 113,-36.5"/>
<text text-anchor="middle" x="154" y="-13.2" font-family="Times New Roman,serif" font-size="14.00">grad 0.0100</text>
</g>
<!-- 1358469672848&#45;&gt;1358479949120* -->
<g id="edge10" class="edge">
<title>1358469672848&#45;&gt;1358479949120*</title>
<path fill="none" stroke="black" d="M166.34,-36.99C176.03,-39.98 185.81,-43.18 195,-46.5 204.87,-50.06 215.4,-54.43 224.93,-58.6"/>
<polygon fill="black" stroke="black" points="223.24,-61.68 233.8,-62.56 226.1,-55.29 223.24,-61.68"/>
</g>
<!-- 1358197654496 -->
<g id="node15" class="node">
<title>1358197654496</title>
<polygon fill="none" stroke="black" points="0,-110.5 0,-146.5 195,-146.5 195,-110.5 0,-110.5"/>
<text text-anchor="middle" x="16.25" y="-123.2" font-family="Times New Roman,serif" font-size="14.00">w0</text>
<polyline fill="none" stroke="black" points="32.5,-110.75 32.5,-146.5"/>
<text text-anchor="middle" x="72.75" y="-123.2" font-family="Times New Roman,serif" font-size="14.00">data 2.0000</text>
<polyline fill="none" stroke="black" points="113,-110.75 113,-146.5"/>
<text text-anchor="middle" x="154" y="-123.2" font-family="Times New Roman,serif" font-size="14.00">grad 0.0033</text>
</g>
<!-- 1358197654496&#45;&gt;1358479948976* -->
<g id="edge11" class="edge">
<title>1358197654496&#45;&gt;1358479948976*</title>
<path fill="none" stroke="black" d="M195.27,-128.5C203.62,-128.5 211.71,-128.5 219.12,-128.5"/>
<polygon fill="black" stroke="black" points="219.01,-132 229.01,-128.5 219.01,-125 219.01,-132"/>
</g>
</g>
</svg>
